<?xml version="1.0" standalone="no"?>
<!DOCTYPE svg PUBLIC "-//W3C//DTD SVG 20010904//EN"
 "http://www.w3.org/TR/2001/REC-SVG-20010904/DTD/svg10.dtd">
<svg version="1.0" xmlns="http://www.w3.org/2000/svg"
 width="700.000000pt" height="700.000000pt" viewBox="0 0 700.000000 700.000000"
 preserveAspectRatio="xMidYMid meet">
<metadata>
Created by potrace 1.11, written by Peter Selinger 2001-2013
</metadata>
<g transform="translate(0.000000,700.000000) scale(0.100000,-0.100000)"
fill="#000000" stroke="none">
<path d="M3500 6132 l0 -869 -105 -7 c-111 -8 -114 -8 -241 -31 -317 -58 -642
-229 -884 -466 -283 -278 -471 -657 -516 -1044 -10 -78 -12 -116 -13 -167 l-1
-48 -870 0 -871 0 5 -138 c6 -163 11 -209 51 -482 19 -133 142 -566 189 -665
8 -16 24 -55 36 -85 50 -126 172 -357 273 -515 193 -300 438 -580 692 -790 33
-28 62 -52 65 -55 24 -25 315 -230 327 -230 4 0 14 -6 22 -14 16 -14 27 -21
172 -101 67 -37 242 -121 334 -160 205 -87 566 -190 770 -219 247 -36 322 -41
565 -41 182 0 351 8 421 20 13 2 71 11 129 20 58 9 125 21 150 26 25 6 56 13
70 15 14 3 68 16 120 30 490 132 917 349 1315 668 201 162 397 362 572 586 53
69 203 287 203 296 0 3 8 18 19 32 36 51 143 258 202 392 87 195 189 509 224
689 52 274 67 409 70 666 2 252 -9 441 -35 580 -6 28 -13 68 -16 90 -38 261
-162 639 -301 923 -250 510 -633 966 -1080 1287 -65 46 -129 93 -143 103 -75
55 -360 209 -505 274 -286 126 -622 221 -925 262 -168 23 -191 25 -347 32
l-143 6 0 -870z"/>
</g>
</svg>
